<?xml version="1.0" encoding="UTF-8"?>
<svg width="48px" height="48px" viewBox="0 0 48 48" version="1.1" xmlns="http://www.w3.org/2000/svg" xmlns:xlink="http://www.w3.org/1999/xlink">
    <title>Icons/48px/Outline/Compatible</title>
    <g id="Icons/48px/Outline/Compatible" stroke="none" fill="none" fill-rule="evenodd">
        <path d="M39,7 C41.209139,7 43,8.790861 43,11 L43,21 L44,21 C45.6568542,21 47,22.3431458 47,24 L47,42 C47,43.6568542 45.6568542,45 44,45 L35,45 C33.3431458,45 32,43.6568542 32,42 L32,41.5 L14,41.5 L14,40 L19,40 L19,35 L9,35 C6.790861,35 5,33.209139 5,31 L5,11 C5,8.790861 6.790861,7 9,7 L39,7 Z M32,40 L32,35 L29,35 L29,40 L32,40 Z" id="Combined-Shape" fill="#FFEBEB"></path>
        <path d="M40,17 C41.6568542,17 43,18.3431458 43,20 L43,38 C43,39.6568542 41.6568542,41 40,41 L31,41 C29.3431458,41 28,39.6568542 28,38 L28,37.5 L10,37.5 L10,36 L15,36 L15,31 L5,31 C2.790861,31 1,29.209139 1,27 L1,7 C1,4.790861 2.790861,3 5,3 L35,3 C37.209139,3 39,4.790861 39,7 L39,17 L40,17 Z M40,18.5 L31,18.5 C30.2307462,18.5 29.5967393,19.0790603 29.5100916,19.8250683 L29.5,20 L29.5,38 C29.5,38.7692538 30.0790603,39.4032607 30.8250683,39.4899084 L31,39.5 L40,39.5 C40.7692538,39.5 41.4032607,38.9209397 41.4899084,38.1749317 L41.5,38 L41.5,20 C41.5,19.2307462 40.9209397,18.5967393 40.1749317,18.5100916 L40,18.5 Z M28,36 L28,31 L25,31 L25,36 L28,36 Z M23.5,31 L16.5,31 L16.5,36 L23.5,36 L23.5,31 Z M28,29.5 L28,26.5 L2.5,26.5 L2.5,27 C2.5,28.3254834 3.53153594,29.4100387 4.83562431,29.4946823 L5,29.5 L28,29.5 Z M36.5,20 C36.7761424,20 37,20.2238576 37,20.5 L37,21 C37,21.2761424 36.7761424,21.5 36.5,21.5 L34.5,21.5 C34.2238576,21.5 34,21.2761424 34,21 L34,20.5 C34,20.2238576 34.2238576,20 34.5,20 L36.5,20 Z M20.5,6 C20.7761424,6 21,6.22385763 21,6.5 L21,7 C21,7.27614237 20.7761424,7.5 20.5,7.5 L19.5,7.5 C19.2238576,7.5 19,7.27614237 19,7 L19,6.5 C19,6.22385763 19.2238576,6 19.5,6 L20.5,6 Z M37.5,7 C37.5,5.6745166 36.4684641,4.58996133 35.1643757,4.50531768 L35,4.5 L5,4.5 C3.6745166,4.5 2.58996133,5.53153594 2.50531768,6.83562431 L2.5,7 L2.5,25 L28,25 L28,20 C28,18.3431458 29.3431458,17 31,17 L37.5,17 L37.5,7 Z" id="Combined-Shape" fill="#E63748"></path>
    </g>
</svg>