<?xml version="1.0" encoding="UTF-8"?>
<svg width="48px" height="48px" viewBox="0 0 48 48" version="1.1" xmlns="http://www.w3.org/2000/svg" xmlns:xlink="http://www.w3.org/1999/xlink">
    <title>Icons/48px/Outline/Globe</title>
    <g id="Icons/48px/Outline/Globe" stroke="none" fill="none" fill-rule="evenodd">
        <circle id="Oval" fill="#FFEBEB" cx="26" cy="26" r="19"></circle>
        <path d="M22,3 C23.2476586,3 24.4676131,3.12087771 25.6487675,3.35153724 C32.5999779,4.69459676 38.2112296,9.80181231 40.2105447,16.5714983 C40.7239165,18.2921343 41,20.1144292 41,22 C41,32.4767303 32.4767303,41 22,41 C17.634921,41 13.6089495,39.5204184 10.3972584,37.0364283 C10.3832119,37.0294741 10.3705116,37.0203656 10.3580933,37.0107422 C9.31320946,36.1989551 8.36325209,35.2849439 7.51910339,34.2885055 C7.37523131,34.118514 7.23403622,33.9463891 7.09583847,33.7717886 C7.08397869,33.7557335 7.07135985,33.7396841 7.05876744,33.7236154 C4.51706694,30.4923573 3,26.420028 3,22 C3,21.1955817 3.05024798,20.4026798 3.14777007,19.6242681 L3.10147098,20.0355225 C3.12124336,19.8431256 3.14394275,19.6512665 3.169546,19.4600023 C3.22667843,19.0306372 3.29876632,18.6053129 3.38477617,18.184999 C3.38662907,18.1765844 3.38848099,18.1675559 3.39033948,18.158529 L3.38477617,18.184999 C3.44028308,17.9137472 3.50158826,17.6445821 3.56855606,17.3776393 C3.58661756,17.3052925 3.60504083,17.2335798 3.62388267,17.1619905 C3.64325504,17.0889508 3.66306728,17.0155564 3.68330784,16.942338 C3.74716817,16.7103907 3.81554234,16.480071 3.88827091,16.2512006 C3.90331376,16.2052244 3.91825801,16.1588676 3.93337549,16.1125885 C3.96327783,16.0195222 3.9942214,15.9271325 4.0258774,15.8349928 C4.05882404,15.7408578 4.09200625,15.6468168 4.12590552,15.5531161 C4.14484429,15.4988258 4.16466462,15.4447569 4.18473218,15.3907795 C4.21411754,15.313832 4.24332166,15.2369093 4.27300974,15.1602258 C4.29309465,15.1061073 4.31425395,15.052134 4.3356622,14.9982573 C4.36008441,14.9391564 4.38406772,14.8797445 4.40834216,14.8204815 C5.07067596,13.1993311 5.96047992,11.6681273 7.05912779,10.2705384 L7.08870521,10.2372292 C10.5713384,5.83179709 15.9611573,3 22,3 Z M21.7419981,4.26850477 L22,4.26664732 C16.6284802,4.26664732 11.8070187,6.66741077 8.55229261,10.4522606 L10.2174835,11.284668 C11.211029,11.7818756 11.9140778,12.7330933 12.0964355,13.8292694 L12.1454315,14.1188965 C12.3979492,15.6374817 11.6430054,17.120697 10.2661896,17.8092499 L9.0273743,18.4285126 C8.68295284,18.6010132 8.38781738,18.8619385 8.17356871,19.1822967 C7.52589418,20.1532288 6.44218443,20.7333527 5.27352902,20.7333527 L4.31141866,20.7331856 C4.28174002,21.1516612 4.26664732,21.5741016 4.26664732,22 C4.26664732,22.2534321 4.27199147,22.5056398 4.28257298,22.7565162 L4.12661747,22.8181458 C5.45356752,22.2496185 6.97041323,22.5421448 7.99121094,23.5629425 L9.16479492,24.7365265 C9.47906494,25.0507965 9.87538149,25.2630158 10.3111267,25.3502808 C11.9465485,25.677887 13.1325989,27.1248627 13.1325989,28.7924652 L13.1325989,28.967865 C13.1325989,29.9222718 12.8534088,30.8456574 12.3240204,31.6385804 C12.0103302,32.1085358 11.8123169,32.6544495 11.7494049,33.2151489 L11.4149858,36.2194102 C14.3713237,38.4258273 18.035873,39.7333527 22,39.7333527 C31.7780304,39.7333527 39.7333527,31.7780304 39.7333527,22 C39.7333527,21.4741422 39.710344,20.953556 39.6652805,20.4391955 C39.3657436,20.490437 39.0602869,20.5361588 38.7528534,20.5767975 C38.6560211,20.588974 38.5591888,20.5953522 38.4640961,20.5953522 C37.4691009,20.5953522 36.5787659,19.9125977 36.3265381,18.9138336 C36.1778107,18.3235626 35.9916839,17.8173675 35.7742462,17.4082946 C35.6362457,17.148529 35.3880768,16.9826966 35.0923615,16.9522552 C34.7685241,16.9200745 34.4530944,17.0516968 34.2434845,17.3050843 C32.9687194,18.845993 31.7267151,19.558609 30.5487824,19.4255371 C29.1212311,19.2620239 28.4283294,17.9081116 28.3993378,17.8504181 C25.9453853,12.9422708 21.8781074,12.4923003 20.5801941,12.4822642 L20.4405395,12.4828708 C20.2720739,12.4857397 20.1759801,12.4955562 20.1691742,12.4968109 C20.1456909,12.4994202 20.1227875,12.5005798 20.0993042,12.5005798 C19.747345,12.5005798 19.3565368,12.5855255 18.9390564,12.7519378 C17.5393372,13.3120575 15.9929199,12.8919678 15.0904083,11.7076569 C14.2061615,10.5462494 14.21138,9.03636168 15.1037445,7.86219789 L15.1770935,7.76652525 C15.6218262,7.19509891 16.3019714,6.83154297 17.0415497,6.77153013 C19.0525224,6.60818134 20.6289795,5.76766242 21.7419981,4.26850477 Z M19.0437164,15.6673431 C19.436264,15.6673431 19.820694,15.7743225 20.1549683,15.9758148 L22.4522705,17.3537903 C22.642746,17.4691772 22.8683014,17.5083161 23.086029,17.4639587 L24.4599457,17.1885376 C25.4561004,16.9890747 26.4682007,17.5222321 26.8677063,18.4557648 L28.0856476,21.2975311 C28.1592865,21.4685822 28.2871399,21.61557 28.4460144,21.7097931 L29.6938171,22.4592285 C30.2275543,22.7795868 30.5974884,23.3153534 30.7076569,23.927948 C30.8178253,24.5417023 30.6577912,25.1722718 30.2687225,25.6587524 L29.1603698,27.0445557 C29.0345459,27.2022705 28.9646759,27.4005737 28.9646759,27.6017761 L28.9646759,29.6013336 C28.9646759,30.1698608 28.7341919,30.7267914 28.332077,31.1283265 L27.6455536,31.8148499 C27.5936585,31.866745 27.5487213,31.9244385 27.511322,31.9864807 L25.9982453,34.5084686 C25.7335511,34.9491424 25.3186798,35.2822571 24.8304596,35.4449005 C24.6069336,35.5217285 24.3770294,35.5570984 24.1508942,35.5570984 C23.2901306,35.5570984 22.4801025,35.0390167 22.1443786,34.1991272 L21.4503174,32.463974 C21.4140778,32.3746795 21.3845062,32.2816162 21.3604431,32.1865234 L20.1596069,27.3825989 C20.1436615,27.319397 20.1207581,27.2585144 20.0917663,27.2002411 L19.4469909,25.9115601 C19.2588348,25.534668 18.842804,25.345932 18.4331512,25.4447937 L17.8199768,25.5978698 C17.169693,25.7602234 16.4698334,25.6080169 15.947113,25.1893768 L13.942627,23.5864258 C13.4277344,23.173584 13.1325989,22.5592499 13.1325989,21.9005585 L13.1325989,21.2221527 C13.1325989,20.7693024 13.272049,20.3361664 13.5350036,19.9682617 L15.961029,16.5715942 C16.3657532,16.0048065 17.0227051,15.6673431 17.7179261,15.6673431 L19.0437164,15.6673431 Z M4.6252747,23.9815827 L4.39131166,24.0830536 C4.78235372,27.4057925 6.12245895,30.5469355 8.20663521,33.1325948 C8.22215338,33.152478 8.23811742,33.1721336 8.25412254,33.1917543 L8.20663521,33.1325948 C8.28114922,33.225038 8.35661433,33.3167711 8.43302116,33.4077771 L8.25412254,33.1917543 C8.86178301,33.9366883 9.52867165,34.6314988 10.2475357,35.2689331 L10.4911652,33.0745392 C10.5758209,32.3132171 10.8451538,31.573349 11.2701722,30.9349518 C11.6601105,30.3504791 11.8659515,29.6703338 11.8659515,28.9672852 L11.8659515,28.7918854 C11.8659515,27.7258606 11.1078186,26.8007355 10.0623779,26.5917054 C9.38020327,26.4554443 8.75949093,26.1234894 8.26866148,25.6315003 L7.0950775,24.4579163 C6.44218443,23.8061829 5.47328188,23.6188965 4.6252747,23.9815827 Z M32.9504547,27.0938415 C33.1739808,27.1611023 33.3418426,27.3466491 33.3873597,27.5759735 L34.0205384,30.7424469 C34.0515594,30.8969727 34.0237274,31.0572967 33.9428405,31.1929779 L32.0427246,34.3594513 C31.9427033,34.5267334 31.7704925,34.6380615 31.5774079,34.6621247 C31.5513153,34.6647339 31.5252228,34.6667633 31.5,34.6667633 C31.3327179,34.6667633 31.171814,34.6006623 31.0523682,34.4812164 L29.7854309,33.2145691 C29.6361237,33.064972 29.5708923,32.8501434 29.6126403,32.6425628 L30.246109,29.4757995 C30.270752,29.3537445 30.3307648,29.2409668 30.4188996,29.1522522 L32.3190155,27.2521362 C32.4842682,27.0868835 32.7275085,27.0254212 32.9504547,27.0938415 Z M19.0448761,16.9345703 L17.7193756,16.9345703 C17.431778,16.9345703 17.1607056,17.0746002 16.9934235,17.3082733 L14.5671081,20.7049408 C14.4583893,20.8568573 14.4006958,21.036026 14.4006958,21.2230225 L14.4006958,21.9011383 C14.4006958,22.1736603 14.5227508,22.4276276 14.7355499,22.5983887 L16.7394562,24.2007599 C16.9554443,24.3738403 17.2456512,24.4382019 17.5141144,24.3700714 L18.1264191,24.2172852 C18.3038483,24.1717682 18.4824372,24.1500244 18.6584167,24.1500244 C19.4603271,24.1500244 20.2062836,24.5967865 20.5805664,25.3453522 L21.2253418,26.6340332 C21.2957916,26.7746429 21.3508758,26.9236603 21.388855,27.0761566 L22.5896911,31.8800812 C22.5992584,31.9186401 22.6117249,31.9560394 22.6265106,31.9928589 L23.3211517,33.7300415 C23.4965515,34.1669464 23.9830322,34.3930817 24.4321136,34.2449341 C24.6333161,34.1770935 24.8049469,34.0396729 24.9151154,33.8567352 L26.4276123,31.3353271 C26.5180664,31.1851501 26.6270752,31.0454102 26.7520294,30.9204559 L27.4391327,30.2327728 C27.6055451,30.0666504 27.7006378,29.8367462 27.7006378,29.6019134 L27.7006378,27.602356 C27.7006378,27.1141357 27.8684997,26.6360626 28.1737824,26.2542419 L29.2827148,24.8684388 C29.446228,24.6643372 29.5100098,24.4103698 29.4644928,24.1532135 C29.4181061,23.8960571 29.2693786,23.6803589 29.0452728,23.5458374 L27.7980499,22.7972718 C27.4075317,22.5635986 27.1054382,22.2177277 26.92482,21.797348 L25.7062988,18.9550018 C25.5410462,18.5691224 25.1229858,18.350235 24.7113037,18.4311218 L23.3370972,18.706543 C22.8088684,18.8138122 22.2641144,18.7175599 21.8022766,18.4406891 L19.5041046,17.0618439 C19.3652344,16.9783478 19.2069397,16.9345703 19.0448761,16.9345703 Z M32.3772888,28.9849701 L31.4492645,29.9129944 L30.9204559,32.558197 L31.3738861,33.0124969 L32.7306976,30.7514343 L32.3772888,28.9849701 Z M5.63231065,15.1756256 L5.53255723,15.4151209 C5.52467771,15.4347661 5.51683374,15.4544252 5.50902535,15.474098 L5.53405864,15.4153243 C5.12546132,16.4334151 4.80867663,17.4978759 4.59400722,18.5984039 C4.57891767,18.671185 4.56517889,18.7441584 4.55189889,18.8172404 L4.59400722,18.5984039 C4.56414279,18.7515074 4.53625469,18.905309 4.51037065,19.0597809 L4.55189889,18.8172404 C4.52236769,18.9797556 4.49510521,19.1428079 4.47012852,19.3063558 L4.51037065,19.0597809 C4.48772734,19.1949126 4.46661769,19.3305572 4.44706026,19.4666963 L5.27352902,19.4667054 C6.01716616,19.4667054 6.7074585,19.0973511 7.11972042,18.4786682 C7.45544434,17.9745026 7.91960142,17.5654297 8.46116636,17.2943573 L9.69998173,16.6748047 C10.5766907,16.23732 11.057373,15.2924805 10.8964691,14.3258972 L10.847763,14.0365601 C10.7312164,13.3378601 10.2838745,12.7330933 9.65127567,12.4165039 L7.74489671,11.4629779 C6.8994628,12.603717 6.18750237,13.8490314 5.63231065,15.1756256 Z M23.2330169,4.3110046 C22.2603454,5.93482973 20.4431458,7.76507568 17.1447601,8.03382875 C16.7580109,8.06542969 16.4051819,8.25155636 16.1764374,8.54553223 L16.1138153,8.62641909 C15.4588929,9.48776241 15.6774902,10.3859253 16.0987396,10.9399567 C16.5254974,11.5006561 17.4019165,12.0042419 18.4691009,11.5760345 C19.0251618,11.3536682 19.5629577,11.239151 20.0677033,11.2339325 C20.3236999,11.2104492 21.7631378,11.1211548 23.5527954,11.7444763 C25.325058,12.3614196 27.801239,13.8223114 29.5323334,17.2842102 C29.5340729,17.2885589 29.9559021,18.0884399 30.700119,18.168457 C31.4150543,18.2577515 32.3004608,17.6680603 33.2676239,16.4982453 C33.6990204,15.9769745 34.3316193,15.6806793 34.9946595,15.6806793 C35.0700378,15.6806793 35.1454163,15.685028 35.2207946,15.6925659 C35.9441376,15.7662048 36.5532532,16.1752777 36.892746,16.8136749 C37.1583099,17.3126221 37.3812561,17.9150696 37.5546265,18.6033325 C37.6737824,19.0747376 38.1164856,19.3837891 38.5849915,19.3208771 C38.8949127,19.2797088 39.2025146,19.2330322 39.5046081,19.1822967 C39.3950457,18.4932966 39.24667,17.8185161 39.0618385,17.1601362 C39.0424926,17.0911094 39.022357,17.0218473 39.0018108,16.9527602 L39.0618385,17.1601362 C39.0361141,17.0685043 39.0096834,16.9771901 38.982553,16.8861994 L39.0018108,16.9527602 C37.0940652,10.5379045 31.6464724,5.63171557 24.9342027,4.50936357 C24.8975923,4.50311002 24.8605841,4.49710952 24.8235381,4.4912229 L24.9342027,4.50936357 C24.8241971,4.49096964 24.7138518,4.47359202 24.6031768,4.45724071 L24.8235381,4.4912229 C24.300555,4.40812087 23.7700232,4.34771685 23.2330169,4.3110046 Z" id="Combined-Shape" fill="#E63748"></path>
    </g>
</svg>