<?xml version="1.0" encoding="UTF-8"?>
<svg width="48px" height="48px" viewBox="0 0 48 48" version="1.1" xmlns="http://www.w3.org/2000/svg" xmlns:xlink="http://www.w3.org/1999/xlink">
    <title>Icons/48px/Outline/Identity</title>
    <g id="Icons/48px/Outline/Identity" stroke="none" fill="none" fill-rule="evenodd">
        <path d="M29,7 C30.6568542,7 32,8.34314575 32,10 L32,13 L42,13 C45.3137085,13 48,15.6862915 48,19 L48,38 C48,41.3137085 45.3137085,44 42,44 L10,44 C6.6862915,44 4,41.3137085 4,38 L4,19 C4,15.6862915 6.6862915,13 10,13 L20,13 L20,10 C20,8.34314575 21.3431458,7 23,7 L29,7 Z" id="Combined-Shape" fill="#FFEBEB"></path>
        <path d="M6,40 C5.91286824,40 5.82617028,39.9981427 5.73994353,39.9944656 L6,40 C5.87995716,40 5.76073769,39.9964747 5.64243949,39.989522 C5.57499912,39.9855522 5.5084017,39.9805188 5.4421166,39.9744072 C5.42158712,39.9725149 5.40093361,39.9705033 5.38031105,39.9683873 C5.31091231,39.9612667 5.24186213,39.952963 5.17318293,39.9434969 C5.15138303,39.9404914 5.12983198,39.9374003 5.10831822,39.934195 C2.21750683,39.5035114 0,37.0107189 0,34 L0,15 C0,11.6862915 2.6862915,9 6,9 L16,9 L16,6 C16,4.34314575 17.3431458,3 19,3 L25,3 C26.6568542,3 28,4.34314575 28,6 L28,9 L38,9 C41.3137085,9 44,11.6862915 44,15 L44,34 C44,37.3137085 41.3137085,40 38,40 L23.8822455,40.0000173 L22.3594937,40.0005823 L6,40 Z M14.5,30.5 C10.081722,30.5 6.5,34.081722 6.5,38.5 L22.5,38.5 C22.5,34.081722 18.918278,30.5 14.5,30.5 Z M38,10.5 L6,10.5 C3.58572667,10.5 1.61551091,12.4012365 1.50489799,14.7881643 L1.5,15 L1.5,34 C1.5,36.1422325 2.99691277,37.9348424 5.0018112,38.3889024 L5,38.5 C5,34.2029463 7.85294724,30.5722341 11.7680107,29.3986945 C9.54320651,28.3678685 8,26.1141518 8,23.5 C8,19.9101491 10.9101491,17 14.5,17 C18.0898509,17 21,19.9101491 21,23.5 C21,26.1141518 19.4567935,28.3678685 17.2316819,29.3998485 C21.1470528,30.5722341 24,34.2029463 24,38.5 L38,38.5 C40.4142733,38.5 42.3844891,36.5987635 42.495102,34.2118357 L42.5,34 L42.5,15 C42.5,12.5857267 40.5987635,10.6155109 38.2118357,10.504898 L38,10.5 Z M35,27 C35.5522847,27 36,27.4477153 36,28 C36,28.5522847 35.5522847,29 35,29 L29,29 C28.4477153,29 28,28.5522847 28,28 C28,27.4477153 28.4477153,27 29,27 L35,27 Z M14.5,18.5 C11.7385763,18.5 9.5,20.7385763 9.5,23.5 C9.5,26.2614237 11.7385763,28.5 14.5,28.5 C17.2614237,28.5 19.5,26.2614237 19.5,23.5 C19.5,20.7385763 17.2614237,18.5 14.5,18.5 Z M35,22 C35.5522847,22 36,22.4477153 36,23 C36,23.5522847 35.5522847,24 35,24 L29,24 C28.4477153,24 28,23.5522847 28,23 C28,22.4477153 28.4477153,22 29,22 L35,22 Z M25,4.5 L19,4.5 C18.2203039,4.5 17.5795513,5.09488808 17.5068666,5.85553999 L17.5,6 L17.5,9 L26.5,9 L26.5,6 C26.5,5.22030388 25.9051119,4.57955132 25.14446,4.50686658 L25,4.5 Z" id="Combined-Shape" fill="#E63748"></path>
    </g>
</svg>