<?xml version="1.0" encoding="UTF-8"?>
<svg width="48px" height="48px" viewBox="0 0 48 48" version="1.1" xmlns="http://www.w3.org/2000/svg" xmlns:xlink="http://www.w3.org/1999/xlink">
    <title>Icons/48px/Outline/On</title>
    <g id="Icons/48px/Outline/On" stroke="none" fill="none" fill-rule="evenodd">
        <circle id="Oval" fill="#FFEBEB" cx="27.0000322" cy="26.9979833" r="21"></circle>
        <path d="M25.7436953,7.58630469 C25.9471953,7.12430469 26.4861953,6.9135 26.95,7.11330469 C33.9661953,10.1805 38.5,17.1013047 38.5,24.75 C38.5,35.365 29.865,44 19.25,44 C8.635,44 0,35.365 0,24.75 C0,17.1013047 4.53380469,10.1805 11.55,7.11339063 C12.0156094,6.91358594 12.5546094,7.12439063 12.7563047,7.58639063 C12.9598047,8.05019531 12.7471094,8.591 12.2833047,8.79269531 C5.9345,11.5683047 1.83330469,17.831 1.83330469,24.75 C1.83330469,34.353 9.647,42.1666094 19.25,42.1666094 C28.853,42.1666094 36.6666953,34.3529141 36.6666953,24.7499141 C36.6666953,17.8309141 32.5655,11.5683047 26.2166953,8.79260938 C25.7528906,8.591 25.5401953,8.05010938 25.7436953,7.58630469 Z M19.25,0 C19.756,0 20.1666953,0.410695312 20.1666953,0.916695313 L20.1666953,24.75 C20.1666953,25.256 19.756,25.6666953 19.25,25.6666953 C18.744,25.6666953 18.3333047,25.256 18.3333047,24.75 L18.3333047,0.916695313 C18.3333047,0.410695312 18.744,0 19.25,0 Z" id="Combined-Shape" fill="#E63748"></path>
    </g>
</svg>