<?xml version="1.0" encoding="UTF-8"?>
<svg width="48px" height="48px" viewBox="0 0 48 48" version="1.1" xmlns="http://www.w3.org/2000/svg" xmlns:xlink="http://www.w3.org/1999/xlink">
    <title>Icons/48px/Outline/Shield Tick</title>
    <g id="Icons/48px/Outline/Shield-Tick" stroke="none" fill="none" fill-rule="evenodd">
        <path d="M25.5,5 L46,13.8288247 C46,13.8288247 45.3894442,39.5252134 25.5,47 C5.85132182,39.5252134 5,13.8288247 5,13.8288247 L25.4997465,5 Z" id="Combined-Shape" fill="#FFEBEB"></path>
        <path d="M21.5,1 L42,9.82882469 L41.963015,10.5557984 L41.9280305,11.0351438 L41.8553473,11.8409325 L41.7773866,12.5610474 L41.7125669,13.0923016 L41.6364249,13.6620384 L41.5480647,14.2681497 L41.44659,14.9085276 L41.331105,15.5810639 L41.2007133,16.2836506 L41.0545191,17.0141796 C41.0287867,17.1381458 41.0023586,17.2631885 40.975216,17.3892637 L40.8036377,18.1577535 C40.6833374,18.6778717 40.5510087,19.2131047 40.4054566,19.7606417 L40.1770616,20.5908238 L40.0551459,21.0121771 L39.7953183,21.8660907 C37.3588759,29.6138113 32.2402999,38.9636152 21.5,43 C11.5793824,39.2259802 6.45066224,30.8068366 3.80398511,23.3953034 L3.50392321,22.528348 L3.22592783,21.6727354 C3.18138772,21.5311922 3.13773221,21.3902069 3.0949439,21.249822 L2.84848116,20.415059 C2.73031368,20.0016212 2.61963757,19.5943545 2.51598267,19.1944097 L2.31789518,18.4046232 L2.1376951,17.6364069 L1.9745466,16.8918062 L1.82761386,16.1728666 C1.80442995,16.0552954 1.78188687,15.9388786 1.7599672,15.8236589 L1.63579093,15.1470461 L1.52574085,14.501208 L1.42898115,13.88819 L1.30693267,13.0346752 L1.23974215,12.5126564 L1.18291662,12.0306169 L1.11528431,11.386993 L1.0535843,10.687846 L1,9.82882469 L21.5,1 Z M21.5,2.633 L2.563,10.788 L2.57989284,10.9805091 L2.6699243,11.8570314 C2.68190761,11.9620098 2.69457401,12.0694585 2.70794668,12.1793193 L2.79684301,12.8669585 C2.81313334,12.9862329 2.83017625,13.1078021 2.84799489,13.2316077 L2.95742649,13.9567155 C3.44282187,17.0334571 4.22588678,20.20886 5.37003144,23.3137413 C8.46423852,31.7105343 13.5727661,38.0457811 21.1482726,41.2430881 L21.502,41.389 L21.8935367,41.2302286 C28.2592994,38.566177 32.8899483,33.717263 36.0539232,27.2467055 L36.2774307,26.7817725 C38.0332807,23.0664214 39.2045352,19.0697861 39.8978667,15.070674 C40.1406339,13.6704011 40.306004,12.3717227 40.4081407,11.2094848 L40.441,10.791 L21.5,2.633 Z M29.7658451,11.4195051 C29.9988323,11.1865449 30.3633963,11.1653766 30.6202954,11.3559934 L30.693896,11.4195319 L33.5930338,14.3186697 C33.8493153,14.5749513 33.8493153,14.9904658 33.5930338,15.2467474 L18.4526297,30.3871514 C18.1963482,30.643433 17.7808337,30.643433 17.5245521,30.3871514 L9.40696624,22.2695656 C9.15068467,22.013284 9.15068467,21.5977695 9.40696624,21.3414879 L12.3185824,18.4298718 C12.5748611,18.1735931 12.9903699,18.1735898 13.2466527,18.4298644 L18.0006117,23.1822636 Z M30.2300235,12.8111285 L18.4644573,24.575634 C18.2314728,24.8085916 17.8669138,24.8297624 17.6100146,24.6391513 L17.5364139,24.5756145 L12.7828708,19.8213851 L10.7994363,21.8048196 L17.9885909,28.9939743 L32.2007301,14.7818351 L30.2300235,12.8111285 Z" id="Combined-Shape" fill="#E63748"></path>
    </g>
</svg>