<?xml version="1.0" encoding="UTF-8"?>
<svg width="48px" height="48px" viewBox="0 0 48 48" version="1.1" xmlns="http://www.w3.org/2000/svg" xmlns:xlink="http://www.w3.org/1999/xlink">
    <title>Icons/48px/Outline/Speed</title>
    <g id="Icons/48px/Outline/Speed" stroke="none" fill="none" fill-rule="evenodd">
        <circle id="Oval" fill="#FFEBEB" cx="29.5" cy="25.5" r="17.5"></circle>
        <path d="M25.5890909,4 C25.6625805,4 25.7340272,4.00863399 25.802478,4.02494052 C29.3659629,4.07321035 32.9082231,5.19651638 35.86336,7.35022545 C40.4099744,10.6645372 42.896587,15.8744491 42.9743862,21.1942145 C42.9911262,21.2640705 43,21.3364575 43,21.4109091 C43,21.4831709 42.9916405,21.5534878 42.9758326,21.6209407 C42.9449859,24.7016721 42.1074985,27.7981469 40.3956945,30.57088 C39.6829851,31.7257463 38.8512325,32.769702 37.9250562,33.6959302 C37.9180034,33.704375 37.9093303,33.7133834 37.9004364,33.7222545 L37.872096,33.7486632 C34.6328677,36.9599735 30.2532253,38.7407524 25.7742699,38.8027327 C25.7147749,38.8153501 25.6526981,38.8218182 25.5890909,38.8218182 C25.5271394,38.8218182 25.4666397,38.8156825 25.4081627,38.8039871 L25.5322764,38.8044073 C22.8464145,38.8044073 20.1330618,38.1858618 17.6130618,36.8873745 C17.1631273,36.6555345 16.9862691,36.1029673 17.2181091,35.6530327 C17.4499491,35.2030982 18.0034327,35.02624 18.4524509,35.25808 C20.4366525,36.2805357 22.5554122,36.8316536 24.67249,36.9491946 L24.6727273,35.1563636 C24.6727273,34.6505309 25.0823418,34.24 25.5890909,34.24 C26.09584,34.24 26.5054545,34.6505309 26.5054545,35.1563636 L26.5055111,36.9433001 C29.9605789,36.729768 33.3049388,35.3772561 35.9358952,33.0528104 L34.6610909,31.7777309 C34.3027927,31.4194327 34.3027927,30.8393745 34.6610909,30.4819927 C35.0193891,30.1236945 35.5985309,30.1236945 35.9568291,30.4819927 L37.2347168,31.7594259 C37.8223116,31.099829 38.3594701,30.3820668 38.83696,29.6086982 C40.2346386,27.3446575 40.9810321,24.8395246 41.1218152,22.3273254 L39.3345455,22.3272727 C38.8277964,22.3272727 38.4181818,21.9167418 38.4181818,21.4109091 C38.4181818,20.9050764 38.8277964,20.4945455 39.3345455,20.4945455 L41.1176102,20.4945761 C40.9092821,17.0520032 39.5752688,13.7039363 37.2345804,11.0601538 L35.9559127,12.3398255 C35.7772218,12.5185164 35.5426327,12.60832 35.3080436,12.60832 C35.0734545,12.60832 34.8388655,12.5185164 34.6601745,12.3398255 C34.3018764,11.9824436 34.3018764,11.4023855 34.6601745,11.0440873 L35.9407319,9.76395753 C35.573494,9.43762072 35.1877762,9.12644201 34.7838836,8.83198545 C32.3405395,7.05121902 29.4475402,6.05765502 26.5054135,5.88254118 L26.5054545,7.66545455 C26.5054545,8.17128727 26.09584,8.58181818 25.5890909,8.58181818 C25.0823418,8.58181818 24.6727273,8.17128727 24.6727273,7.66545455 L24.6725585,5.87945216 C22.5298283,5.99994985 20.4050507,6.55706237 18.4524509,7.56282182 C18.0034327,7.79466182 17.4499491,7.61872 17.2181091,7.16786909 C16.9862691,6.71793455 17.1622109,6.16536727 17.6130618,5.93352727 C20.0026687,4.70193455 22.6226886,4.07177759 25.2471595,4.02546308 L25.3787708,4.02421551 C25.4462878,4.00837818 25.5166982,4 25.5890909,4 Z M17.8742902,31 C18.21594,31 18.4921018,31.4105309 18.4921018,31.9163636 C18.4921018,32.4221964 18.21594,32.8327273 17.8742902,32.8327273 L11.2087207,32.8327273 C10.8670709,32.8327273 10.5909091,32.4221964 10.5909091,31.9163636 C10.5909091,31.4105309 10.8670709,31 11.2087207,31 L17.8742902,31 Z M16.2035173,26 C16.5885757,26 16.8998255,26.4105309 16.8998255,26.9163636 C16.8998255,27.4221964 16.5878794,27.8327273 16.2035173,27.8327273 L5.51449002,27.8327273 C5.12943159,27.8327273 4.81818182,27.4221964 4.81818182,26.9163636 C4.81818182,26.4105309 5.12943159,26 5.51449002,26 L16.2035173,26 Z M33.3644364,13.6355636 C33.7227345,13.9938618 33.7227345,14.5730036 33.3644364,14.9313018 L28.7648143,19.5306493 C29.0718963,20.0442786 29.2545455,20.6721549 29.2545455,21.4109091 C29.2545455,23.7586327 27.4099055,24.98656 25.5890909,24.98656 C24.9538447,24.98656 24.3156986,24.8370999 23.7539965,24.5427714 L22.9976145,25.29904 C22.8189236,25.4777309 22.5843345,25.5675345 22.3497455,25.5675345 C22.1151564,25.5675345 21.8805673,25.4777309 21.7018764,25.29904 C21.3435782,24.9416582 21.3435782,24.3616 21.7018764,24.0033018 L22.4135123,23.291411 C22.1063429,22.7777369 21.9236364,22.1497794 21.9236364,21.4109091 C21.9236364,19.0631855 23.7682764,17.8352582 25.5890909,17.8352582 C26.2247112,17.8352582 26.8632349,17.9848944 27.4251777,18.2795669 L32.0686982,13.6355636 C32.4269964,13.2772655 33.0061382,13.2772655 33.3644364,13.6355636 Z M25.5890909,19.6679855 C24.7432873,19.6679855 23.7563636,20.1243345 23.7563636,21.4109091 C23.7563636,21.9611589 23.936887,22.3595479 24.2096867,22.6353244 C24.2394287,22.6558589 24.2669886,22.6802831 24.2933527,22.7066473 L24.3106706,22.728468 C24.6685285,23.0297204 25.1479998,23.1538327 25.5890909,23.1538327 C26.4348945,23.1538327 27.4218182,22.6974836 27.4218182,21.4109091 C27.4218182,20.8646466 27.2439016,20.468052 26.974411,20.1925083 C26.9426164,20.1693529 26.9130268,20.1433686 26.8848291,20.1151709 L26.8620535,20.0887774 C26.5047878,19.7908412 26.0279436,19.6679855 25.5890909,19.6679855 Z M15.5990083,21 C16.0097821,21 16.3418182,21.4105309 16.3418182,21.9163636 C16.3418182,22.4221964 16.0097821,22.8327273 15.5990083,22.8327273 L0.742809917,22.8327273 C0.332036033,22.8327273 0,22.4221964 0,21.9163636 C0,21.4105309 0.332036033,21 0.742809917,21 L15.5990083,21 Z M16.2035173,16 C16.5885757,16 16.8998255,16.4105309 16.8998255,16.9163636 C16.8998255,17.4221964 16.5878794,17.8327273 16.2035173,17.8327273 L5.51449002,17.8327273 C5.12943159,17.8327273 4.81818182,17.4221964 4.81818182,16.9163636 C4.81818182,16.4105309 5.12943159,16 5.51449002,16 L16.2035173,16 Z M17.8742902,11 C18.21594,11 18.4921018,11.4105309 18.4921018,11.9163636 C18.4921018,12.4221964 18.21594,12.8327273 17.8742902,12.8327273 L11.2087207,12.8327273 C10.8670709,12.8327273 10.5909091,12.4221964 10.5909091,11.9163636 C10.5909091,11.4105309 10.8670709,11 11.2087207,11 L17.8742902,11 Z" id="Combined-Shape" fill="#E63748"></path>
    </g>
</svg>