<?xml version="1.0" encoding="UTF-8"?>
<svg width="48px" height="48px" viewBox="0 0 48 48" version="1.1" xmlns="http://www.w3.org/2000/svg" xmlns:xlink="http://www.w3.org/1999/xlink">
    <title>Icons/48px/Outline/Total VPN</title>
    <g id="Icons/48px/Outline/Total-VPN" stroke="none" fill="none" fill-rule="evenodd">
        <path d="M26.9364262,46.3555049 L25.3735311,48 L23.2460931,45.7497816 C20.4779093,42.7318181 8.875,29.4871658 8.875,19.656151 C8.875,11.0239453 16.2752493,4 25.3735311,4 C34.4747507,4 41.875,11.0239453 41.875,19.656151 C41.875,30.5795008 27.5474829,45.7172178 26.9364262,46.3555049 Z" id="Path" fill="#FFEBEB"></path>
        <path d="M21.4985994,0 C30.5906435,0 38,7.05688893 38,15.7539478 C38,20.5420557 35.3650194,26.3394725 30.9580213,32.6629567 C29.4077576,34.8873888 27.7350423,37.031428 26.0446784,39.0254471 C25.6794759,39.4562542 25.3267481,39.8642165 24.9894999,40.2472418 L24.3365332,40.9794233 L23.7157444,41.6561399 L22.2251951,43.2308461 C22.2120482,43.2447352 22.1985056,43.2582444 22.184584,43.2713568 C21.7825512,43.650023 21.1496697,43.6310806 20.7710035,43.2290478 L18.9045494,41.2474192 C16.3469113,38.4485979 13.5014535,34.9299693 10.9885565,31.1099264 C7.20800905,25.3628334 5,20.1283637 5,15.7539478 C5,7.05732434 12.4089029,0 21.4985994,0 Z M21.4985994,1.54060924 C13.2391502,1.54060924 6.53488372,7.92673464 6.53488372,15.7539478 C6.53488372,19.7525371 8.64071569,24.7447782 12.2694241,30.2610495 C14.7311794,34.0033479 17.5284318,37.4623668 20.0277762,40.1975273 L21.5,41.7597541 L22.5529252,40.6487335 L23.1242712,40.0295192 L23.6444015,39.4489999 L24.231638,38.7786202 L24.8756975,38.0270751 C26.5365344,36.0678873 28.1799853,33.9613582 29.7003151,31.7798775 C33.940523,25.6957162 36.4651163,20.1411708 36.4651163,15.7539478 C36.4651163,7.92634394 29.7604359,1.54060924 21.4985994,1.54060924 Z M22,11 C25.3137085,11 28,13.6862915 28,17 C28,20.3137085 25.3137085,23 22,23 C18.6862915,23 16,20.3137085 16,17 C16,13.6862915 18.6862915,11 22,11 Z M22,12.5319149 C19.5323447,12.5319149 17.5319149,14.5323447 17.5319149,17 C17.5319149,19.4676553 19.5323447,21.4680851 22,21.4680851 C24.4676553,21.4680851 26.4680851,19.4676553 26.4680851,17 C26.4680851,14.5323447 24.4676553,12.5319149 22,12.5319149 Z" id="Combined-Shape" fill="#E63748"></path>
    </g>
</svg>