<?xml version="1.0" encoding="UTF-8"?>
<svg width="48px" height="48px" viewBox="0 0 48 48" version="1.1" xmlns="http://www.w3.org/2000/svg" xmlns:xlink="http://www.w3.org/1999/xlink">
    <title>Icons/48px/Outline/Wi-Fi</title>
    <g id="Icons/48px/Outline/Wi-Fi" stroke="none" fill="none" fill-rule="evenodd">
        <path d="M25.9258039,34.8476156 C28.1068951,34.8476156 29.8750189,36.6157394 29.8750189,38.7968306 C29.8750189,40.9779218 28.1068951,42.7460455 25.9258039,42.7460455 C23.7447127,42.7460455 21.976589,40.9779218 21.976589,38.7968306 C21.976589,36.6157394 23.7447127,34.8476156 25.9258039,34.8476156 Z M25.8768196,25.7929421 L25.9854386,25.7929421 L26.3457114,25.7996482 C29.1740005,25.9045754 32.152923,27.2355222 34.266055,29.3290821 C35.4370136,30.4891473 35.4457821,32.3788942 34.2858933,33.5493748 C33.1723748,34.6737806 31.386128,34.7267531 30.2090025,33.7028235 L30.065127,33.5692231 C29.0859949,32.5990781 27.6745865,31.9200209 26.4536229,31.7870191 L26.212154,31.767775 L25.9857726,31.7616875 L25.8769681,31.7616875 C24.5393657,31.7616875 22.8989031,32.4778799 21.7973618,33.569252 C21.2318723,34.1295202 20.4772361,34.4335927 19.697005,34.4335927 C18.907283,34.4335927 18.1441514,34.1220506 17.5769014,33.5495791 C16.4169189,32.3787041 16.4256865,30.4891883 17.5965155,29.3291036 C19.6250856,27.3193231 22.4517935,26.0122811 25.2014716,25.8174146 L25.5447169,25.7988785 L25.8768196,25.7929421 Z M25.9997543,17.11285 C31.2798532,17.1126892 36.3317642,19.2769373 40.2157039,23.1902143 C41.3767362,24.3600502 41.3696298,26.2495695 40.1995998,27.4109425 C39.6338658,27.9721819 38.8784301,28.2769019 38.0974375,28.2769019 C37.3085726,28.2769019 36.5462822,27.9661574 35.9791844,27.3948534 C33.2118735,24.6066293 29.6707103,23.0814618 25.9998272,23.0815954 C22.3278858,23.0816622 18.7867791,24.6067603 16.0206382,27.3945553 C14.8597187,28.5645772 12.9701479,28.5719145 11.8001342,27.4110031 C10.6301123,26.2500836 10.622775,24.3605127 11.7836955,23.1904899 C15.5587226,19.3859291 20.438871,17.2344426 25.5602536,17.1178512 L25.9997543,17.11285 Z M25.9997257,8.5 C33.5337275,8.5 40.5369931,11.5559206 45.698796,17.0941197 C46.8225694,18.2998147 46.7560746,20.1881575 45.5502196,21.3122292 C44.9912817,21.8330248 44.2648225,22.1132691 43.5159174,22.1132691 C42.6947706,22.1132691 41.9037535,21.7765992 41.3324283,21.1636467 C37.3050594,16.8425461 31.8674917,14.4688147 26.000263,14.4687454 C20.1325427,14.4688147 14.6949551,16.8424994 10.667589,21.1635969 C9.54386686,22.3693861 7.655526,22.4357886 6.44957793,21.3120676 C5.24391411,20.1883233 5.17746446,18.2999073 6.30117277,17.094122 C11.4630086,11.5559719 18.4662474,8.5 25.9997257,8.5 Z" id="Combined-Shape" fill="#FFEBEB"></path>
        <path d="M21.9258039,30.8476156 C24.1068951,30.8476156 25.8750189,32.6157394 25.8750189,34.7968306 C25.8750189,36.9779218 24.1068951,38.7460455 21.9258039,38.7460455 C19.7447127,38.7460455 17.976589,36.9779218 17.976589,34.7968306 C17.976589,32.6157394 19.7447127,30.8476156 21.9258039,30.8476156 Z M21.9258039,32.3476156 C20.5731399,32.3476156 19.476589,33.4441665 19.476589,34.7968306 C19.476589,36.0953881 20.4871703,37.1579117 21.7647674,37.2408359 L21.9258039,37.2460455 L22.0868405,37.2408359 C23.3644376,37.1579117 24.3750189,36.0953881 24.3750189,34.7968306 C24.3750189,33.4441665 23.278468,32.3476156 21.9258039,32.3476156 Z M21.8768196,21.7929421 L21.9854386,21.7929421 L22.3457114,21.7996482 C25.1740005,21.9045754 28.152923,23.2355222 30.266055,25.3290821 C31.4370136,26.4891473 31.4457821,28.3788942 30.2858933,29.5493748 C29.1723748,30.6737806 27.386128,30.7267531 26.2090025,29.7028235 L26.065127,29.5692231 C25.0859949,28.5990781 23.6745865,27.9200209 22.4536229,27.7870191 L22.212154,27.767775 L21.9857726,27.7616875 L21.8769681,27.7616875 C20.5393657,27.7616875 18.8989031,28.4778799 17.7973618,29.569252 C17.2318723,30.1295202 16.4772361,30.4335927 15.697005,30.4335927 C14.907283,30.4335927 14.1441514,30.1220506 13.5769014,29.5495791 C12.4169189,28.3787041 12.4256865,26.4891883 13.5965155,25.3291036 C15.6250856,23.3193231 18.4517935,22.0122811 21.2014716,21.8174146 L21.5447169,21.7988785 L21.8768196,21.7929421 Z M21.8768196,23.2929421 L21.5727045,23.2986174 C19.1315502,23.3891845 16.5060801,24.5580076 14.6522292,26.3946873 C14.0699098,26.9716629 14.0655309,27.9114935 14.6425066,28.4938872 C14.896492,28.7502105 15.2207683,28.8946175 15.5538807,28.9267142 L15.697005,28.9335927 L15.8384205,28.9268795 C16.1675998,28.8955499 16.4884261,28.7545523 16.7416323,28.503684 C18.0476465,27.2097266 19.931986,26.3508864 21.6132988,26.2682373 L21.8769681,26.2616875 L21.9857726,26.2616875 L22.2494112,26.2682378 C23.9305461,26.3508935 25.8150126,27.2097971 27.1208858,28.503684 C27.4120455,28.7921347 27.7926201,28.935321 28.1725175,28.9335927 L28.3147713,28.9261299 C28.6458016,28.8929048 28.9676913,28.7487493 29.2200857,28.4938872 C29.7971355,27.9115677 29.7927566,26.9716629 29.210363,26.3946873 C27.4370462,24.6377951 24.9579992,23.4920726 22.6094676,23.3165102 L22.2901008,23.298617 L21.9854386,23.2929421 L21.8768196,23.2929421 Z M21.9997543,13.11285 C27.2798532,13.1126892 32.3317642,15.2769373 36.2157039,19.1902143 C37.3767362,20.3600502 37.3696298,22.2495695 36.1995998,23.4109425 C35.6338658,23.9721819 34.8784301,24.2769019 34.0974375,24.2769019 C33.3085726,24.2769019 32.5462822,23.9661574 31.9791844,23.3948534 C29.2118735,20.6066293 25.6707103,19.0814618 21.9998272,19.0815954 C18.3278858,19.0816622 14.7867791,20.6067603 12.0206382,23.3945553 C10.8597187,24.5645772 8.97014789,24.5719145 7.80013419,23.4110031 C6.63011235,22.2500836 6.62277501,20.3605127 7.78369545,19.1904899 C11.5587226,15.3859291 16.438871,13.2344426 21.5602536,13.1178512 L21.9997543,13.11285 Z M21.9997999,14.61285 C17.1240067,14.61285 12.4534279,16.6138586 8.84848038,20.2470093 C8.2710594,20.8289576 8.27469611,21.7687882 8.85664443,22.3462091 C9.14761859,22.6349196 9.52806332,22.7783657 9.90794212,22.7769019 L10.0501943,22.7695449 C10.3812335,22.7365574 10.7032226,22.5926475 10.9558443,22.3380451 C13.9991795,19.2708858 17.9213375,17.5816696 21.9997999,17.5815954 C26.0772233,17.581447 29.9993813,19.2707373 33.0438298,22.3381935 C33.2977503,22.5939973 33.6216775,22.7380306 33.954455,22.7700419 L34.0974375,22.7769019 L34.2389982,22.770173 C34.5685287,22.7387704 34.8897771,22.5974485 35.1431781,22.3460607 C35.724978,21.7685655 35.7285405,20.8287349 35.1510453,20.2468608 C31.5449844,16.6135617 26.8744799,14.6127016 21.9997999,14.61285 Z M21.9997257,4.5 C29.5337275,4.5 36.5369931,7.55592061 41.698796,13.0941197 C42.8225694,14.2998147 42.7560746,16.1881575 41.5502196,17.3122292 C40.9912817,17.8330248 40.2648225,18.1132691 39.5159174,18.1132691 C38.6947706,18.1132691 37.9037535,17.7765992 37.3324283,17.1636467 C33.3050594,12.8425461 27.8674917,10.4688147 22.000263,10.4687454 C16.1325427,10.4688147 10.6949551,12.8424994 6.667589,17.1635969 C5.54386686,18.3693861 3.655526,18.4357886 2.44957793,17.3120676 C1.24391411,16.1883233 1.17746446,14.2999073 2.30117277,13.094122 C7.46300855,7.55597188 14.4662474,4.5 21.9997257,4.5 Z M21.9997257,6 C14.8829008,6 8.27692267,8.88272602 3.39845754,14.1168468 C2.83959122,14.7165334 2.87261851,15.6558445 3.47230508,16.214785 C3.77218548,16.4942182 4.15693489,16.6256965 4.53658176,16.6123464 L4.67853443,16.6005574 C5.00837919,16.5572376 5.32570677,16.4033328 5.57024325,16.1409375 C9.8808616,11.515929 15.7156338,8.96881964 22.0002452,8.96874542 C28.2843371,8.96881964 34.1191093,11.515929 38.4297277,16.1409375 C38.6855315,16.4153794 39.021002,16.5711768 39.367127,16.605838 L39.5159174,16.6132691 L39.6710625,16.605182 C39.9805503,16.5728188 40.2824899,16.44323 40.5276659,16.214785 C41.1273524,15.6557703 41.1604539,14.7165334 40.6015134,14.1168468 C35.7231225,8.88272602 29.1171444,6 21.9997257,6 Z" id="Combined-Shape" fill="#E63748"></path>
    </g>
</svg>