<?xml version="1.0" encoding="UTF-8"?>
<svg width="48px" height="48px" viewBox="0 0 48 48" version="1.1" xmlns="http://www.w3.org/2000/svg" xmlns:xlink="http://www.w3.org/1999/xlink">
    <title>Flag/Albania</title>
    <defs>
        <circle id="path-1" cx="24" cy="24" r="24"></circle>
    </defs>
    <g id="Flag/Albania" stroke="none" fill="none">
        <mask id="mask-2" fill="white">
            <use xlink:href="#path-1"></use>
        </mask>
        <use id="Oval" fill="#ED5565" fill-rule="evenodd" xlink:href="#path-1"></use>
        <path d="M34,17.9008124 L27.5916459,17.9008124 C27.9872353,17.4865632 28.2307121,16.9257302 28.2307121,16.3076737 C28.2307121,15.0332042 27.1975079,14 25.9230384,14 C25.1201109,14 24.4133162,14.4102408 23.9999654,15.0323058 C23.5866146,14.4102408 22.8797509,14 22.0768925,14 C20.802423,14 19.7692188,15.0332042 19.7692188,16.3076737 C19.7692188,16.9257302 20.0126956,17.4866323 20.408285,17.9008124 L14,17.9008124 C14,19.6001742 15.4801428,20.9776876 17.1793663,20.9776876 L17.0768061,20.9776876 C17.0768061,22.6771185 18.4543887,24.0547011 20.1538196,24.0547011 C20.1538196,24.6050983 20.2988828,25.1210784 20.5521042,25.5678096 L17.999848,28.120135 L19.9580291,30.078178 L22.7357243,27.3005518 C22.8445045,27.3404287 22.9570857,27.3724269 23.0733299,27.3941968 L21.3948395,31.1838792 L23.9999654,34 L26.6050914,31.183741 L24.926601,27.3940586 C25.0429143,27.3722887 25.1554264,27.3403596 25.2642066,27.3004136 L28.0419018,30.0780397 L30.0000829,28.1199277 L27.4477575,25.5676023 C27.7010481,25.1209402 27.8461113,24.604891 27.8461113,24.0544937 C29.5454731,24.0544937 30.9230557,22.6769803 30.9230557,20.9774803 L30.8205646,20.9774803 C32.5197881,20.9776185 34,19.6001742 34,17.9008124 Z" id="Path" fill="#F5F7FA" fill-rule="nonzero" mask="url(#mask-2)"></path>
    </g>
</svg>