<?xml version="1.0" encoding="UTF-8"?>
<svg width="48px" height="48px" viewBox="0 0 48 48" version="1.1" xmlns="http://www.w3.org/2000/svg" xmlns:xlink="http://www.w3.org/1999/xlink">
    <title>Flag/Croatia</title>
    <defs>
        <circle id="path-1" cx="24" cy="24" r="24"></circle>
    </defs>
    <g id="Symbols" stroke="none" stroke-width="1" fill="none" fill-rule="evenodd">
        <g id="Flag/Croatia">
            <g id="Group" stroke-width="1" fill-rule="evenodd">
                <mask id="mask-2" fill="white">
                    <use xlink:href="#path-1"></use>
                </mask>
                <use id="Oval" fill="#D8D8D8" xlink:href="#path-1"></use>
                <rect id="Rectangle" fill="#F5F7FA" mask="url(#mask-2)" x="0" y="16" width="48" height="16"></rect>
                <rect id="Rectangle" fill="#ED5565" mask="url(#mask-2)" x="0" y="0" width="48" height="16"></rect>
                <rect id="Rectangle" fill="#4758A9" mask="url(#mask-2)" x="0" y="32" width="48" height="16"></rect>
            </g>
            <path d="M34.173344,17.1775785 C34.1446444,16.5461883 34.1446444,15.9434978 34.1446444,15.3408072 C34.1446444,14.8529148 33.7715503,14.4798206 33.2836579,14.4798206 C29.696214,14.4798206 26.9697566,13.4466368 24.702492,11.2367713 C24.3580974,10.9210762 23.8415054,10.9210762 23.4971108,11.2367713 C21.2298462,13.4466368 18.5033888,14.4798206 14.9159449,14.4798206 C14.4280525,14.4798206 14.0549583,14.8529148 14.0549583,15.3408072 C14.0549583,15.9434978 14.0549583,16.5461883 14.0262588,17.1775785 C13.9114606,23.2044843 13.7392633,31.4699552 23.8128059,34.9426009 L24.0998014,35 L24.3867969,34.9426009 C34.43164,31.4699552 34.2881422,23.2331839 34.173344,17.1775785 Z" id="Path" fill="#ED5565" fill-rule="nonzero"></path>
            <path d="M22.8213862,10.4996172 C23.5481021,9.83346095 24.6515007,9.83346095 25.4004759,10.5206579 C27.47604,12.543676 29.9514827,13.4798206 33.2836579,13.4798206 C34.323835,13.4798206 35.1446444,14.30063 35.1446444,15.3408072 C35.1446444,16.2299558 35.1493034,16.6259708 35.1723125,17.1321708 L35.1731644,17.1586245 C35.2664588,22.0799089 35.0798263,24.5389894 34.0275348,27.3764183 C32.5650765,31.3198326 29.5953005,34.2000197 24.7135365,35.8877153 L24.5829131,35.9231816 L24.2959175,35.9805807 L24.0998014,36.0198039 L23.9036853,35.9805807 L23.6166897,35.9231816 L23.4868982,35.8880025 C17.0507891,33.6692868 14.0325938,29.4988881 13.2402968,23.5190268 C12.9997608,21.7035821 12.9685038,20.2040748 13.0245175,17.2594947 C13.02548,17.2089283 13.02548,17.2089283 13.0272903,17.1321708 C13.0461159,16.7180072 13.0526576,16.3776037 13.054414,15.7805178 L13.0549583,15.3408072 C13.0549583,14.30063 13.8757678,13.4798206 14.9159449,13.4798206 C18.2481201,13.4798206 20.7235628,12.543676 22.8213862,10.4996172 Z M24.099,12.043 L23.9292609,12.2051792 C21.5186719,14.4320956 18.6160316,15.4798206 14.9159449,15.4798206 L15.054,15.478 L15.0543866,15.795907 C15.0527483,16.3460425 15.0471528,16.6888954 15.0321536,17.0569618 L15.0260774,17.1966226 C15.0251171,17.2470264 15.0251171,17.2470264 15.0241557,17.2975331 C14.9700037,20.1442495 14.9997574,21.5716384 15.2229698,23.2563341 C15.9211137,28.5255746 18.4656828,32.0415391 24.1387136,33.9971993 L24.079,33.976 L24.099,33.98 L24.118,33.976 L24.4477681,33.8591226 C28.4031954,32.4023125 30.7849436,30.1070899 32.0348926,26.9856358 L32.1523371,26.6809808 C33.0886626,24.1562457 33.2621317,21.8706076 33.1735236,17.1965324 L33.1680879,17.0767691 C33.1487002,16.5968788 33.1446444,16.1761919 33.1446444,15.3408072 L33.144,15.478 L32.8758043,15.4755033 C29.3692632,15.4006197 26.592389,14.3503159 24.2903004,12.2240451 L24.099,12.043 Z" id="Path" fill="#F5F7FA" fill-rule="nonzero"></path>
        </g>
    </g>
</svg>