<?xml version="1.0" encoding="UTF-8"?>
<svg width="48px" height="48px" viewBox="0 0 48 48" version="1.1" xmlns="http://www.w3.org/2000/svg" xmlns:xlink="http://www.w3.org/1999/xlink">
    <title>Flag/Hong-Kong</title>
    <defs>
        <circle id="path-1" cx="24" cy="24" r="24"></circle>
    </defs>
    <g id="Symbols" stroke="none" stroke-width="1" fill="none" fill-rule="evenodd">
        <g id="Flag/Hong-Kong">
            <mask id="mask-2" fill="white">
                <use xlink:href="#path-1"></use>
            </mask>
            <use id="Oval" fill="#ED5565" fill-rule="evenodd" xlink:href="#path-1"></use>
            <path d="M31.1159876,29.1528557 C32.2211223,31.8274273 30.9520933,34.8930274 28.2817353,36 C26.7211193,32.2225997 25.714152,32.5267017 24.9135806,30.5894526 C24.018415,28.4236326 25.0598913,28.2028785 24.2795363,26.3143196 C26.9498943,25.2074413 30.010759,26.4782842 31.1159876,29.1528557 Z M21.8870369,25.7382305 C23.7634056,27.9398383 23.5023783,31.2481361 21.304333,33.1274655 C19.1060996,35.0067949 15.8030137,34.7450732 13.926927,32.5436538 C17.0312336,29.8894248 16.4312281,29.0240197 18.0234381,27.6630481 C19.8035201,26.141314 20.3346956,27.0652038 21.8870369,25.7382305 Z M12.7727088,17.8012542 C16.252383,19.9383498 16.888496,19.099503 18.6730914,20.1954567 C20.668126,21.4207173 19.9550025,22.2124749 21.6947456,23.2811169 C20.1838715,25.7486843 16.9619334,26.5223597 14.4981593,25.0091958 C12.0344792,23.4960319 11.2618347,20.2688217 12.7727088,17.8012542 Z M36,23.3938484 C33.4865863,23.5912158 32.517002,24.0684616 31.651341,24.4431501 L31.4055933,24.5470829 C30.9556795,24.7312989 30.4966535,24.8773821 29.8215706,24.9303685 C27.4884042,25.1137338 27.6003939,24.0532853 25.5660548,24.2132002 C25.3401007,21.3276691 27.4928236,18.8045364 30.3739969,18.5780374 C33.2550762,18.3521035 35.7741399,20.5080347 36,23.3938484 Z M26.4147696,12.1464081 C25.4606472,16.1213946 26.4538861,16.4683477 25.9644599,18.5066502 C25.4173934,20.7856726 24.4454052,20.3510394 23.968391,22.3385797 C21.1584925,21.6619081 19.4279643,18.8318481 20.1035699,16.0173275 C20.7788933,13.2029952 23.604777,11.4697365 26.4147696,12.1464081 Z" id="Combined-Shape" fill="#F5F7FA" fill-rule="nonzero" mask="url(#mask-2)"></path>
        </g>
    </g>
</svg>